<svg xmlns="http://www.w3.org/2000/svg" width="27" height="36" viewBox="0 0 27 36">
  <path id="Icon_awesome-file-invoice-dollar" data-name="Icon awesome-file-invoice-dollar" d="M26.508,7.383,19.624.492A1.686,1.686,0,0,0,18.429,0H18V9h9V8.571A1.682,1.682,0,0,0,26.508,7.383ZM15.75,9.563V0H1.688A1.683,1.683,0,0,0,0,1.688V34.313A1.683,1.683,0,0,0,1.688,36H25.313A1.683,1.683,0,0,0,27,34.313V11.25H17.438A1.692,1.692,0,0,1,15.75,9.563ZM4.5,5.063A.562.562,0,0,1,5.063,4.5h5.625a.562.562,0,0,1,.563.563V6.188a.562.562,0,0,1-.562.563H5.063A.562.562,0,0,1,4.5,6.188Zm0,5.625V9.563A.562.562,0,0,1,5.063,9h5.625a.562.562,0,0,1,.563.563v1.125a.562.562,0,0,1-.562.563H5.063A.562.562,0,0,1,4.5,10.688ZM14.625,29.242v1.7a.562.562,0,0,1-.562.563H12.938a.562.562,0,0,1-.562-.562V29.23a4.026,4.026,0,0,1-2.206-.8.563.563,0,0,1-.04-.854l.826-.788a.577.577,0,0,1,.712-.051,1.693,1.693,0,0,0,.9.262h1.976a.884.884,0,0,0,.83-.927.918.918,0,0,0-.617-.9l-3.164-.949a3.182,3.182,0,0,1-2.22-3.051,3.131,3.131,0,0,1,3-3.169v-1.7a.562.562,0,0,1,.563-.562h1.125a.562.562,0,0,1,.563.563V18.02a4.021,4.021,0,0,1,2.206.8.563.563,0,0,1,.04.854l-.826.788a.577.577,0,0,1-.712.051,1.687,1.687,0,0,0-.9-.262H12.454a.884.884,0,0,0-.83.927.918.918,0,0,0,.617.9l3.164.949a3.182,3.182,0,0,1,2.22,3.051A3.131,3.131,0,0,1,14.625,29.242Z"/>
</svg>
